<svg width="1552pt" height="620pt" viewBox="0.00 0.00 1552.27 620.00" xmlns="http://www.w3.org/2000/svg" xmlns:xlink="http://www.w3.org/1999/xlink">
<g id="graph0" class="graph" transform="scale(1 1) rotate(0) translate(4 616)">
<title>g</title>
<polygon fill="white" stroke="none" points="-4,4 -4,-616 1548.27,-616 1548.27,4 -4,4"/>
<!-- 0 -->
<g id="node1" class="node">
<title>0</title>
<ellipse fill="none" stroke="black" cx="770.64" cy="-594" rx="38.93" ry="18"/>
<text text-anchor="middle" x="770.64" y="-589.8" font-family="Times,serif" font-size="14.00">[A,0,1]</text>
</g>
<!-- 1 -->
<g id="node2" class="node">
<title>1</title>
<ellipse fill="none" stroke="black" cx="661.64" cy="-522" rx="45.64" ry="18"/>
<text text-anchor="middle" x="661.64" y="-517.8" font-family="Times,serif" font-size="14.00">[B,0,0,1]</text>
</g>
<!-- 0&#45;&gt;1 -->
<g id="edge1" class="edge">
<title>0-&gt;1</title>
<path fill="none" stroke="black" d="M748.58,-578.83C732.94,-568.79 711.69,-555.15 694.12,-543.86"/>
<polygon fill="black" stroke="black" points="696.37,-541.15 686.06,-538.69 692.59,-547.04 696.37,-541.15"/>
</g>
<!-- 3 -->
<g id="node3" class="node">
<title>3</title>
<ellipse fill="none" stroke="black" cx="879.64" cy="-522" rx="45.64" ry="18"/>
<text text-anchor="middle" x="879.64" y="-517.8" font-family="Times,serif" font-size="14.00">[B,0,1,1]</text>
</g>
<!-- 0&#45;&gt;3 -->
<g id="edge2" class="edge">
<title>0-&gt;3</title>
<path fill="none" stroke="black" d="M792.7,-578.83C808.34,-568.79 829.58,-555.15 847.16,-543.86"/>
<polygon fill="black" stroke="black" points="848.69,-547.04 855.21,-538.69 844.9,-541.15 848.69,-547.04"/>
</g>
<!-- 5 -->
<g id="node4" class="node">
<title>5</title>
<ellipse fill="none" stroke="black" cx="770.64" cy="-522" rx="45.64" ry="18"/>
<text text-anchor="middle" x="770.64" y="-517.8" font-family="Times,serif" font-size="14.00">[B,0,2,1]</text>
</g>
<!-- 0&#45;&gt;5 -->
<g id="edge3" class="edge">
<title>0-&gt;5</title>
<path fill="none" stroke="black" d="M770.64,-575.7C770.64,-568.41 770.64,-559.73 770.64,-551.54"/>
<polygon fill="black" stroke="black" points="774.14,-551.62 770.64,-541.62 767.14,-551.62 774.14,-551.62"/>
</g>
<!-- 7 -->
<g id="node5" class="node">
<title>7</title>
<ellipse fill="none" stroke="black" cx="953.64" cy="-450" rx="45.64" ry="18"/>
<text text-anchor="middle" x="953.64" y="-445.8" font-family="Times,serif" font-size="14.00">[B,0,3,1]</text>
</g>
<!-- 0&#45;&gt;7 -->
<g id="edge4" class="edge">
<title>0-&gt;7</title>
<path fill="none" stroke="black" d="M809.35,-591.19C846.87,-587.28 902.66,-575.43 934.64,-540 949.3,-523.76 953.66,-499.05 954.57,-479.78"/>
<polygon fill="black" stroke="black" points="958.07,-479.9 954.73,-469.85 951.07,-479.79 958.07,-479.9"/>
</g>
<!-- 9 -->
<g id="node6" class="node">
<title>9</title>
<ellipse fill="none" stroke="black" cx="587.64" cy="-450" rx="45.64" ry="18"/>
<text text-anchor="middle" x="587.64" y="-445.8" font-family="Times,serif" font-size="14.00">[B,0,4,1]</text>
</g>
<!-- 0&#45;&gt;9 -->
<g id="edge5" class="edge">
<title>0-&gt;9</title>
<path fill="none" stroke="black" d="M731.93,-591.19C694.41,-587.28 638.62,-575.43 606.64,-540 591.98,-523.76 587.62,-499.05 586.71,-479.78"/>
<polygon fill="black" stroke="black" points="590.21,-479.79 586.55,-469.85 583.21,-479.9 590.21,-479.79"/>
</g>
<!-- 2 -->
<g id="node7" class="node">
<title>2</title>
<ellipse fill="none" stroke="black" cx="696.64" cy="-450" rx="45.64" ry="18"/>
<text text-anchor="middle" x="696.64" y="-445.8" font-family="Times,serif" font-size="14.00">[C,0,0,1]</text>
</g>
<!-- 1&#45;&gt;2 -->
<g id="edge6" class="edge">
<title>1-&gt;2</title>
<path fill="none" stroke="black" d="M670.11,-504.05C674.02,-496.23 678.76,-486.75 683.15,-477.98"/>
<polygon fill="black" stroke="black" points="686.22,-479.65 687.57,-469.14 679.96,-476.52 686.22,-479.65"/>
</g>
<!-- 4 -->
<g id="node8" class="node">
<title>4</title>
<ellipse fill="none" stroke="black" cx="844.64" cy="-450" rx="45.64" ry="18"/>
<text text-anchor="middle" x="844.64" y="-445.8" font-family="Times,serif" font-size="14.00">[C,0,1,1]</text>
</g>
<!-- 3&#45;&gt;4 -->
<g id="edge7" class="edge">
<title>3-&gt;4</title>
<path fill="none" stroke="black" d="M871.16,-504.05C867.25,-496.23 862.51,-486.75 858.13,-477.98"/>
<polygon fill="black" stroke="black" points="861.31,-476.52 853.71,-469.14 855.05,-479.65 861.31,-476.52"/>
</g>
<!-- 6 -->
<g id="node11" class="node">
<title>6</title>
<ellipse fill="none" stroke="black" cx="770.64" cy="-378" rx="45.64" ry="18"/>
<text text-anchor="middle" x="770.64" y="-373.8" font-family="Times,serif" font-size="14.00">[C,0,2,1]</text>
</g>
<!-- 5&#45;&gt;6 -->
<g id="edge10" class="edge">
<title>5-&gt;6</title>
<path fill="none" stroke="black" d="M770.64,-503.59C770.64,-479.61 770.64,-436.14 770.64,-407.42"/>
<polygon fill="black" stroke="black" points="774.14,-407.62 770.64,-397.62 767.14,-407.62 774.14,-407.62"/>
</g>
<!-- 8 -->
<g id="node14" class="node">
<title>8</title>
<ellipse fill="none" stroke="black" cx="885.64" cy="-378" rx="45.64" ry="18"/>
<text text-anchor="middle" x="885.64" y="-373.8" font-family="Times,serif" font-size="14.00">[C,0,3,1]</text>
</g>
<!-- 7&#45;&gt;8 -->
<g id="edge13" class="edge">
<title>7-&gt;8</title>
<path fill="none" stroke="black" d="M937.87,-432.76C929.37,-424.02 918.72,-413.05 909.25,-403.31"/>
<polygon fill="black" stroke="black" points="911.86,-400.97 902.38,-396.23 906.84,-405.84 911.86,-400.97"/>
</g>
<!-- 10 -->
<g id="node17" class="node">
<title>10</title>
<ellipse fill="none" stroke="black" cx="587.64" cy="-378" rx="45.64" ry="18"/>
<text text-anchor="middle" x="587.64" y="-373.8" font-family="Times,serif" font-size="14.00">[C,0,4,1]</text>
</g>
<!-- 9&#45;&gt;10 -->
<g id="edge16" class="edge">
<title>9-&gt;10</title>
<path fill="none" stroke="black" d="M587.64,-431.7C587.64,-424.41 587.64,-415.73 587.64,-407.54"/>
<polygon fill="black" stroke="black" points="591.14,-407.62 587.64,-397.62 584.14,-407.62 591.14,-407.62"/>
</g>
<!-- 33 -->
<g id="node9" class="node">
<title>33</title>
<ellipse fill="none" stroke="black" cx="988.64" cy="-378" rx="38.93" ry="18"/>
<text text-anchor="middle" x="988.64" y="-373.8" font-family="Times,serif" font-size="14.00">[A,1,2]</text>
</g>
<!-- 4&#45;&gt;33 -->
<g id="edge8" class="edge">
<title>4-&gt;33</title>
<path fill="none" stroke="black" d="M872.74,-435.34C895.52,-424.27 927.77,-408.59 952.47,-396.58"/>
<polygon fill="black" stroke="black" points="953.72,-399.87 961.18,-392.35 950.66,-393.57 953.72,-399.87"/>
</g>
<!-- 42 -->
<g id="node10" class="node">
<title>42</title>
<ellipse fill="none" stroke="black" cx="481.64" cy="-378" rx="38.93" ry="18"/>
<text text-anchor="middle" x="481.64" y="-373.8" font-family="Times,serif" font-size="14.00">[A,1,3]</text>
</g>
<!-- 4&#45;&gt;42 -->
<g id="edge9" class="edge">
<title>4-&gt;42</title>
<path fill="none" stroke="black" d="M803.92,-441.39C787.67,-438.4 768.78,-434.98 751.64,-432 654.45,-415.13 628.39,-419.67 532.64,-396 529.3,-395.18 525.87,-394.24 522.44,-393.23"/>
<polygon fill="black" stroke="black" points="523.64,-389.94 513.05,-390.32 521.57,-396.63 523.64,-389.94"/>
</g>
<!-- 36 -->
<g id="node12" class="node">
<title>36</title>
<ellipse fill="none" stroke="black" cx="879.64" cy="-306" rx="45.64" ry="18"/>
<text text-anchor="middle" x="879.64" y="-301.8" font-family="Times,serif" font-size="14.00">[B,1,2,2]</text>
</g>
<!-- 33&#45;&gt;36 -->
<g id="edge48" class="edge">
<title>33-&gt;36</title>
<path fill="none" stroke="black" d="M966.58,-362.83C950.94,-352.79 929.69,-339.15 912.12,-327.86"/>
<polygon fill="black" stroke="black" points="914.37,-325.15 904.06,-322.69 910.59,-331.04 914.37,-325.15"/>
</g>
<!-- 38 -->
<g id="node15" class="node">
<title>38</title>
<ellipse fill="none" stroke="black" cx="988.64" cy="-306" rx="45.64" ry="18"/>
<text text-anchor="middle" x="988.64" y="-301.8" font-family="Times,serif" font-size="14.00">[B,1,3,2]</text>
</g>
<!-- 33&#45;&gt;38 -->
<g id="edge49" class="edge">
<title>33-&gt;38</title>
<path fill="none" stroke="black" d="M988.64,-359.7C988.64,-352.41 988.64,-343.73 988.64,-335.54"/>
<polygon fill="black" stroke="black" points="992.14,-335.62 988.64,-325.62 985.14,-335.62 992.14,-335.62"/>
</g>
<!-- 40 -->
<g id="node18" class="node">
<title>40</title>
<ellipse fill="none" stroke="black" cx="770.64" cy="-306" rx="45.64" ry="18"/>
<text text-anchor="middle" x="770.64" y="-301.8" font-family="Times,serif" font-size="14.00">[B,1,4,2]</text>
</g>
<!-- 33&#45;&gt;40 -->
<g id="edge50" class="edge">
<title>33-&gt;40</title>
<path fill="none" stroke="black" d="M958.49,-366.12C952.58,-364.04 946.43,-361.92 940.64,-360 889.41,-342.99 876.16,-340.1 824.64,-324 821.93,-323.15 819.14,-322.28 816.33,-321.4"/>
<polygon fill="black" stroke="black" points="817.52,-318.1 806.93,-318.45 815.42,-324.78 817.52,-318.1"/>
</g>
<!-- 34 -->
<g id="node48" class="node">
<title>34</title>
<ellipse fill="none" stroke="black" cx="1097.64" cy="-306" rx="45.64" ry="18"/>
<text text-anchor="middle" x="1097.64" y="-301.8" font-family="Times,serif" font-size="14.00">[B,1,1,2]</text>
</g>
<!-- 33&#45;&gt;34 -->
<g id="edge47" class="edge">
<title>33-&gt;34</title>
<path fill="none" stroke="black" d="M1010.7,-362.83C1026.34,-352.79 1047.58,-339.15 1065.16,-327.86"/>
<polygon fill="black" stroke="black" points="1066.69,-331.04 1073.21,-322.69 1062.9,-325.15 1066.69,-331.04"/>
</g>
<!-- 45 -->
<g id="node13" class="node">
<title>45</title>
<ellipse fill="none" stroke="black" cx="552.64" cy="-306" rx="45.64" ry="18"/>
<text text-anchor="middle" x="552.64" y="-301.8" font-family="Times,serif" font-size="14.00">[B,1,2,3]</text>
</g>
<!-- 42&#45;&gt;45 -->
<g id="edge59" class="edge">
<title>42-&gt;45</title>
<path fill="none" stroke="black" d="M497.75,-361.12C506.83,-352.17 518.34,-340.81 528.48,-330.81"/>
<polygon fill="black" stroke="black" points="530.85,-333.4 535.51,-323.88 525.93,-328.41 530.85,-333.4"/>
</g>
<!-- 47 -->
<g id="node16" class="node">
<title>47</title>
<ellipse fill="none" stroke="black" cx="661.64" cy="-306" rx="45.64" ry="18"/>
<text text-anchor="middle" x="661.64" y="-301.8" font-family="Times,serif" font-size="14.00">[B,1,3,3]</text>
</g>
<!-- 42&#45;&gt;47 -->
<g id="edge60" class="edge">
<title>42-&gt;47</title>
<path fill="none" stroke="black" d="M510.56,-365.75C540.06,-354.28 586.14,-336.36 619.66,-323.32"/>
<polygon fill="black" stroke="black" points="620.6,-326.71 628.65,-319.83 618.06,-320.19 620.6,-326.71"/>
</g>
<!-- 49 -->
<g id="node19" class="node">
<title>49</title>
<ellipse fill="none" stroke="black" cx="443.64" cy="-306" rx="45.64" ry="18"/>
<text text-anchor="middle" x="443.64" y="-301.8" font-family="Times,serif" font-size="14.00">[B,1,4,3]</text>
</g>
<!-- 42&#45;&gt;49 -->
<g id="edge61" class="edge">
<title>42-&gt;49</title>
<path fill="none" stroke="black" d="M472.44,-360.05C468.14,-352.14 462.93,-342.54 458.13,-333.69"/>
<polygon fill="black" stroke="black" points="461.32,-332.24 453.47,-325.12 455.17,-335.58 461.32,-332.24"/>
</g>
<!-- 43 -->
<g id="node53" class="node">
<title>43</title>
<ellipse fill="none" stroke="black" cx="257.64" cy="-306" rx="45.64" ry="18"/>
<text text-anchor="middle" x="257.64" y="-301.8" font-family="Times,serif" font-size="14.00">[B,1,1,3]</text>
</g>
<!-- 42&#45;&gt;43 -->
<g id="edge58" class="edge">
<title>42-&gt;43</title>
<path fill="none" stroke="black" d="M449.95,-367.01C442.62,-364.7 434.86,-362.26 427.64,-360 385.58,-346.82 337.64,-331.88 303.41,-321.23"/>
<polygon fill="black" stroke="black" points="304.84,-318.01 294.25,-318.38 302.76,-324.7 304.84,-318.01"/>
</g>
<!-- 6&#45;&gt;36 -->
<g id="edge11" class="edge">
<title>6-&gt;36</title>
<path fill="none" stroke="black" d="M793.75,-362.15C809.22,-352.22 829.79,-339.01 846.93,-328.01"/>
<polygon fill="black" stroke="black" points="848.76,-330.99 855.28,-322.64 844.98,-325.1 848.76,-330.99"/>
</g>
<!-- 6&#45;&gt;45 -->
<g id="edge12" class="edge">
<title>6-&gt;45</title>
<path fill="none" stroke="black" d="M736.09,-365.91C698.81,-353.94 639.27,-334.82 598.18,-321.62"/>
<polygon fill="black" stroke="black" points="599.41,-318.34 588.82,-318.62 597.27,-325.01 599.41,-318.34"/>
</g>
<!-- 37 -->
<g id="node29" class="node">
<title>37</title>
<ellipse fill="none" stroke="black" cx="879.64" cy="-234" rx="45.64" ry="18"/>
<text text-anchor="middle" x="879.64" y="-229.8" font-family="Times,serif" font-size="14.00">[C,1,2,2]</text>
</g>
<!-- 36&#45;&gt;37 -->
<g id="edge52" class="edge">
<title>36-&gt;37</title>
<path fill="none" stroke="black" d="M879.64,-287.7C879.64,-280.41 879.64,-271.73 879.64,-263.54"/>
<polygon fill="black" stroke="black" points="883.14,-263.62 879.64,-253.62 876.14,-263.62 883.14,-263.62"/>
</g>
<!-- 46 -->
<g id="node43" class="node">
<title>46</title>
<ellipse fill="none" stroke="black" cx="552.64" cy="-234" rx="45.64" ry="18"/>
<text text-anchor="middle" x="552.64" y="-229.8" font-family="Times,serif" font-size="14.00">[C,1,2,3]</text>
</g>
<!-- 45&#45;&gt;46 -->
<g id="edge63" class="edge">
<title>45-&gt;46</title>
<path fill="none" stroke="black" d="M552.64,-287.7C552.64,-280.41 552.64,-271.73 552.64,-263.54"/>
<polygon fill="black" stroke="black" points="556.14,-263.62 552.64,-253.62 549.14,-263.62 556.14,-263.62"/>
</g>
<!-- 8&#45;&gt;38 -->
<g id="edge14" class="edge">
<title>8-&gt;38</title>
<path fill="none" stroke="black" d="M907.73,-361.98C922.13,-352.2 941.12,-339.29 957.09,-328.44"/>
<polygon fill="black" stroke="black" points="959.02,-331.36 965.33,-322.84 955.09,-325.57 959.02,-331.36"/>
</g>
<!-- 8&#45;&gt;47 -->
<g id="edge15" class="edge">
<title>8-&gt;47</title>
<path fill="none" stroke="black" d="M850.47,-366.07C816.08,-355.37 762.25,-338.6 715.64,-324 712.93,-323.15 710.14,-322.28 707.34,-321.4"/>
<polygon fill="black" stroke="black" points="708.52,-318.1 697.93,-318.44 706.43,-324.78 708.52,-318.1"/>
</g>
<!-- 39 -->
<g id="node31" class="node">
<title>39</title>
<ellipse fill="none" stroke="black" cx="1151.64" cy="-234" rx="45.64" ry="18"/>
<text text-anchor="middle" x="1151.64" y="-229.8" font-family="Times,serif" font-size="14.00">[C,1,3,2]</text>
</g>
<!-- 38&#45;&gt;39 -->
<g id="edge54" class="edge">
<title>38-&gt;39</title>
<path fill="none" stroke="black" d="M1018.53,-292.16C1044.53,-281 1082.43,-264.72 1111.14,-252.39"/>
<polygon fill="black" stroke="black" points="1112.46,-255.64 1120.26,-248.47 1109.69,-249.2 1112.46,-255.64"/>
</g>
<!-- 48 -->
<g id="node45" class="node">
<title>48</title>
<ellipse fill="none" stroke="black" cx="661.64" cy="-234" rx="45.64" ry="18"/>
<text text-anchor="middle" x="661.64" y="-229.8" font-family="Times,serif" font-size="14.00">[C,1,3,3]</text>
</g>
<!-- 47&#45;&gt;48 -->
<g id="edge65" class="edge">
<title>47-&gt;48</title>
<path fill="none" stroke="black" d="M661.64,-287.7C661.64,-280.41 661.64,-271.73 661.64,-263.54"/>
<polygon fill="black" stroke="black" points="665.14,-263.62 661.64,-253.62 658.14,-263.62 665.14,-263.62"/>
</g>
<!-- 10&#45;&gt;40 -->
<g id="edge17" class="edge">
<title>10-&gt;40</title>
<path fill="none" stroke="black" d="M619.51,-364.81C649.6,-353.3 694.92,-335.96 728.08,-323.28"/>
<polygon fill="black" stroke="black" points="729.32,-326.55 737.41,-319.71 726.82,-320.02 729.32,-326.55"/>
</g>
<!-- 10&#45;&gt;49 -->
<g id="edge18" class="edge">
<title>10-&gt;49</title>
<path fill="none" stroke="black" d="M559.53,-363.34C537.43,-352.59 506.4,-337.51 482.01,-325.66"/>
<polygon fill="black" stroke="black" points="483.56,-322.51 473.03,-321.29 480.5,-328.81 483.56,-322.51"/>
</g>
<!-- 41 -->
<g id="node33" class="node">
<title>41</title>
<ellipse fill="none" stroke="black" cx="770.64" cy="-234" rx="45.64" ry="18"/>
<text text-anchor="middle" x="770.64" y="-229.8" font-family="Times,serif" font-size="14.00">[C,1,4,2]</text>
</g>
<!-- 40&#45;&gt;41 -->
<g id="edge56" class="edge">
<title>40-&gt;41</title>
<path fill="none" stroke="black" d="M770.64,-287.7C770.64,-280.41 770.64,-271.73 770.64,-263.54"/>
<polygon fill="black" stroke="black" points="774.14,-263.62 770.64,-253.62 767.14,-263.62 774.14,-263.62"/>
</g>
<!-- 50 -->
<g id="node47" class="node">
<title>50</title>
<ellipse fill="none" stroke="black" cx="252.64" cy="-234" rx="45.64" ry="18"/>
<text text-anchor="middle" x="252.64" y="-229.8" font-family="Times,serif" font-size="14.00">[C,1,4,3]</text>
</g>
<!-- 49&#45;&gt;50 -->
<g id="edge67" class="edge">
<title>49-&gt;50</title>
<path fill="none" stroke="black" d="M411.24,-293.13C379.41,-281.46 330.65,-263.59 295.6,-250.75"/>
<polygon fill="black" stroke="black" points="297.21,-247.61 286.62,-247.45 294.8,-254.18 297.21,-247.61"/>
</g>
<!-- 11 -->
<g id="node20" class="node">
<title>11</title>
<ellipse fill="none" stroke="black" cx="1280.64" cy="-594" rx="38.93" ry="18"/>
<text text-anchor="middle" x="1280.64" y="-589.8" font-family="Times,serif" font-size="14.00">[A,0,2]</text>
</g>
<!-- 12 -->
<g id="node21" class="node">
<title>12</title>
<ellipse fill="none" stroke="black" cx="1498.64" cy="-522" rx="45.64" ry="18"/>
<text text-anchor="middle" x="1498.64" y="-517.8" font-family="Times,serif" font-size="14.00">[B,0,0,2]</text>
</g>
<!-- 11&#45;&gt;12 -->
<g id="edge19" class="edge">
<title>11-&gt;12</title>
<path fill="none" stroke="black" d="M1311.87,-582.97C1348.94,-571.07 1411.05,-551.12 1453.38,-537.53"/>
<polygon fill="black" stroke="black" points="1454.33,-540.9 1462.78,-534.51 1452.19,-534.24 1454.33,-540.9"/>
</g>
<!-- 14 -->
<g id="node22" class="node">
<title>14</title>
<ellipse fill="none" stroke="black" cx="1062.64" cy="-522" rx="45.64" ry="18"/>
<text text-anchor="middle" x="1062.64" y="-517.8" font-family="Times,serif" font-size="14.00">[B,0,1,2]</text>
</g>
<!-- 11&#45;&gt;14 -->
<g id="edge20" class="edge">
<title>11-&gt;14</title>
<path fill="none" stroke="black" d="M1249.4,-582.97C1212.33,-571.07 1150.23,-551.12 1107.89,-537.53"/>
<polygon fill="black" stroke="black" points="1109.08,-534.24 1098.49,-534.51 1106.94,-540.9 1109.08,-534.24"/>
</g>
<!-- 16 -->
<g id="node23" class="node">
<title>16</title>
<ellipse fill="none" stroke="black" cx="1280.64" cy="-522" rx="45.64" ry="18"/>
<text text-anchor="middle" x="1280.64" y="-517.8" font-family="Times,serif" font-size="14.00">[B,0,2,2]</text>
</g>
<!-- 11&#45;&gt;16 -->
<g id="edge21" class="edge">
<title>11-&gt;16</title>
<path fill="none" stroke="black" d="M1280.64,-575.7C1280.64,-568.41 1280.64,-559.73 1280.64,-551.54"/>
<polygon fill="black" stroke="black" points="1284.14,-551.62 1280.64,-541.62 1277.14,-551.62 1284.14,-551.62"/>
</g>
<!-- 18 -->
<g id="node24" class="node">
<title>18</title>
<ellipse fill="none" stroke="black" cx="1389.64" cy="-522" rx="45.64" ry="18"/>
<text text-anchor="middle" x="1389.64" y="-517.8" font-family="Times,serif" font-size="14.00">[B,0,3,2]</text>
</g>
<!-- 11&#45;&gt;18 -->
<g id="edge22" class="edge">
<title>11-&gt;18</title>
<path fill="none" stroke="black" d="M1302.7,-578.83C1318.34,-568.79 1339.58,-555.15 1357.16,-543.86"/>
<polygon fill="black" stroke="black" points="1358.69,-547.04 1365.21,-538.69 1354.9,-541.15 1358.69,-547.04"/>
</g>
<!-- 20 -->
<g id="node25" class="node">
<title>20</title>
<ellipse fill="none" stroke="black" cx="1171.64" cy="-522" rx="45.64" ry="18"/>
<text text-anchor="middle" x="1171.64" y="-517.8" font-family="Times,serif" font-size="14.00">[B,0,4,2]</text>
</g>
<!-- 11&#45;&gt;20 -->
<g id="edge23" class="edge">
<title>11-&gt;20</title>
<path fill="none" stroke="black" d="M1258.58,-578.83C1242.94,-568.79 1221.69,-555.15 1204.12,-543.86"/>
<polygon fill="black" stroke="black" points="1206.37,-541.15 1196.06,-538.69 1202.59,-547.04 1206.37,-541.15"/>
</g>
<!-- 13 -->
<g id="node26" class="node">
<title>13</title>
<ellipse fill="none" stroke="black" cx="1498.64" cy="-450" rx="45.64" ry="18"/>
<text text-anchor="middle" x="1498.64" y="-445.8" font-family="Times,serif" font-size="14.00">[C,0,0,2]</text>
</g>
<!-- 12&#45;&gt;13 -->
<g id="edge24" class="edge">
<title>12-&gt;13</title>
<path fill="none" stroke="black" d="M1498.64,-503.7C1498.64,-496.41 1498.64,-487.73 1498.64,-479.54"/>
<polygon fill="black" stroke="black" points="1502.14,-479.62 1498.64,-469.62 1495.14,-479.62 1502.14,-479.62"/>
</g>
<!-- 15 -->
<g id="node27" class="node">
<title>15</title>
<ellipse fill="none" stroke="black" cx="1062.64" cy="-450" rx="45.64" ry="18"/>
<text text-anchor="middle" x="1062.64" y="-445.8" font-family="Times,serif" font-size="14.00">[C,0,1,2]</text>
</g>
<!-- 14&#45;&gt;15 -->
<g id="edge25" class="edge">
<title>14-&gt;15</title>
<path fill="none" stroke="black" d="M1062.64,-503.7C1062.64,-496.41 1062.64,-487.73 1062.64,-479.54"/>
<polygon fill="black" stroke="black" points="1066.14,-479.62 1062.64,-469.62 1059.14,-479.62 1066.14,-479.62"/>
</g>
<!-- 17 -->
<g id="node28" class="node">
<title>17</title>
<ellipse fill="none" stroke="black" cx="1280.64" cy="-378" rx="45.64" ry="18"/>
<text text-anchor="middle" x="1280.64" y="-373.8" font-family="Times,serif" font-size="14.00">[C,0,2,2]</text>
</g>
<!-- 16&#45;&gt;17 -->
<g id="edge27" class="edge">
<title>16-&gt;17</title>
<path fill="none" stroke="black" d="M1280.64,-503.59C1280.64,-479.61 1280.64,-436.14 1280.64,-407.42"/>
<polygon fill="black" stroke="black" points="1284.14,-407.62 1280.64,-397.62 1277.14,-407.62 1284.14,-407.62"/>
</g>
<!-- 19 -->
<g id="node30" class="node">
<title>19</title>
<ellipse fill="none" stroke="black" cx="1389.64" cy="-378" rx="45.64" ry="18"/>
<text text-anchor="middle" x="1389.64" y="-373.8" font-family="Times,serif" font-size="14.00">[C,0,3,2]</text>
</g>
<!-- 18&#45;&gt;19 -->
<g id="edge29" class="edge">
<title>18-&gt;19</title>
<path fill="none" stroke="black" d="M1389.64,-503.59C1389.64,-479.61 1389.64,-436.14 1389.64,-407.42"/>
<polygon fill="black" stroke="black" points="1393.14,-407.62 1389.64,-397.62 1386.14,-407.62 1393.14,-407.62"/>
</g>
<!-- 21 -->
<g id="node32" class="node">
<title>21</title>
<ellipse fill="none" stroke="black" cx="1206.64" cy="-306" rx="45.64" ry="18"/>
<text text-anchor="middle" x="1206.64" y="-301.8" font-family="Times,serif" font-size="14.00">[C,0,4,2]</text>
</g>
<!-- 20&#45;&gt;21 -->
<g id="edge31" class="edge">
<title>20-&gt;21</title>
<path fill="none" stroke="black" d="M1174.44,-503.85C1180.45,-467.14 1194.59,-380.66 1201.97,-335.53"/>
<polygon fill="black" stroke="black" points="1205.41,-336.16 1203.57,-325.73 1198.51,-335.03 1205.41,-336.16"/>
</g>
<!-- 15&#45;&gt;33 -->
<g id="edge26" class="edge">
<title>15-&gt;33</title>
<path fill="none" stroke="black" d="M1045.85,-433.12C1036.22,-424.01 1023.97,-412.42 1013.27,-402.3"/>
<polygon fill="black" stroke="black" points="1015.88,-399.95 1006.21,-395.62 1011.07,-405.03 1015.88,-399.95"/>
</g>
<!-- 17&#45;&gt;37 -->
<g id="edge28" class="edge">
<title>17-&gt;37</title>
<path fill="none" stroke="black" d="M1282.33,-359.79C1283.27,-339.49 1281.37,-306.22 1261.64,-288 1216.52,-246.34 1048.42,-260.78 987.64,-252 969.68,-249.41 950.08,-246.38 932.57,-243.61"/>
<polygon fill="black" stroke="black" points="933.32,-240.18 922.89,-242.07 932.22,-247.1 933.32,-240.18"/>
</g>
<!-- 51 -->
<g id="node50" class="node">
<title>51</title>
<ellipse fill="none" stroke="black" cx="715.64" cy="-162" rx="38.93" ry="18"/>
<text text-anchor="middle" x="715.64" y="-157.8" font-family="Times,serif" font-size="14.00">[A,2,3]</text>
</g>
<!-- 37&#45;&gt;51 -->
<g id="edge53" class="edge">
<title>37-&gt;51</title>
<path fill="none" stroke="black" d="M849.56,-220.16C822.63,-208.67 783,-191.75 753.84,-179.31"/>
<polygon fill="black" stroke="black" points="755.57,-176.24 745,-175.53 752.83,-182.68 755.57,-176.24"/>
</g>
<!-- 19&#45;&gt;39 -->
<g id="edge30" class="edge">
<title>19-&gt;39</title>
<path fill="none" stroke="black" d="M1375.74,-360.46C1358.48,-340.82 1327.31,-308.21 1294.64,-288 1265.41,-269.93 1229.07,-256.56 1200.34,-247.77"/>
<polygon fill="black" stroke="black" points="1201.36,-244.42 1190.78,-244.94 1199.38,-251.13 1201.36,-244.42"/>
</g>
<!-- 54 -->
<g id="node51" class="node">
<title>54</title>
<ellipse fill="none" stroke="black" cx="824.64" cy="-90" rx="45.64" ry="18"/>
<text text-anchor="middle" x="824.64" y="-85.8" font-family="Times,serif" font-size="14.00">[B,2,3,3]</text>
</g>
<!-- 39&#45;&gt;54 -->
<g id="edge55" class="edge">
<title>39-&gt;54</title>
<path fill="none" stroke="black" d="M1121.75,-220.02C1062.76,-194.4 931.31,-137.32 864.81,-108.45"/>
<polygon fill="black" stroke="black" points="866.29,-105.27 855.72,-104.5 863.5,-111.69 866.29,-105.27"/>
</g>
<!-- 21&#45;&gt;41 -->
<g id="edge32" class="edge">
<title>21-&gt;41</title>
<path fill="none" stroke="black" d="M1173.2,-293.36C1166.46,-291.33 1159.37,-289.42 1152.64,-288 1009.12,-257.84 968.16,-282.16 824.64,-252 821.48,-251.34 818.25,-250.56 815.01,-249.72"/>
<polygon fill="black" stroke="black" points="816.1,-246.39 805.53,-247.05 814.2,-253.13 816.1,-246.39"/>
</g>
<!-- 56 -->
<g id="node52" class="node">
<title>56</title>
<ellipse fill="none" stroke="black" cx="606.64" cy="-90" rx="45.64" ry="18"/>
<text text-anchor="middle" x="606.64" y="-85.8" font-family="Times,serif" font-size="14.00">[B,2,4,3]</text>
</g>
<!-- 41&#45;&gt;56 -->
<g id="edge57" class="edge">
<title>41-&gt;56</title>
<path fill="none" stroke="black" d="M737.96,-221.1C716.35,-212.12 688.3,-198.22 667.64,-180 647.72,-162.44 631.16,-137.04 620.34,-117.86"/>
<polygon fill="black" stroke="black" points="623.52,-116.38 615.66,-109.27 617.37,-119.73 623.52,-116.38"/>
</g>
<!-- 22 -->
<g id="node34" class="node">
<title>22</title>
<ellipse fill="none" stroke="black" cx="263.64" cy="-594" rx="38.93" ry="18"/>
<text text-anchor="middle" x="263.64" y="-589.8" font-family="Times,serif" font-size="14.00">[A,0,3]</text>
</g>
<!-- 23 -->
<g id="node35" class="node">
<title>23</title>
<ellipse fill="none" stroke="black" cx="45.64" cy="-522" rx="45.64" ry="18"/>
<text text-anchor="middle" x="45.64" y="-517.8" font-family="Times,serif" font-size="14.00">[B,0,0,3]</text>
</g>
<!-- 22&#45;&gt;23 -->
<g id="edge33" class="edge">
<title>22-&gt;23</title>
<path fill="none" stroke="black" d="M232.4,-582.97C195.33,-571.07 133.23,-551.12 90.89,-537.53"/>
<polygon fill="black" stroke="black" points="92.08,-534.24 81.49,-534.51 89.94,-540.9 92.08,-534.24"/>
</g>
<!-- 25 -->
<g id="node36" class="node">
<title>25</title>
<ellipse fill="none" stroke="black" cx="481.64" cy="-522" rx="45.64" ry="18"/>
<text text-anchor="middle" x="481.64" y="-517.8" font-family="Times,serif" font-size="14.00">[B,0,1,3]</text>
</g>
<!-- 22&#45;&gt;25 -->
<g id="edge34" class="edge">
<title>22-&gt;25</title>
<path fill="none" stroke="black" d="M294.87,-582.97C331.94,-571.07 394.05,-551.12 436.38,-537.53"/>
<polygon fill="black" stroke="black" points="437.33,-540.9 445.78,-534.51 435.19,-534.24 437.33,-540.9"/>
</g>
<!-- 27 -->
<g id="node37" class="node">
<title>27</title>
<ellipse fill="none" stroke="black" cx="263.64" cy="-522" rx="45.64" ry="18"/>
<text text-anchor="middle" x="263.64" y="-517.8" font-family="Times,serif" font-size="14.00">[B,0,2,3]</text>
</g>
<!-- 22&#45;&gt;27 -->
<g id="edge35" class="edge">
<title>22-&gt;27</title>
<path fill="none" stroke="black" d="M263.64,-575.7C263.64,-568.41 263.64,-559.73 263.64,-551.54"/>
<polygon fill="black" stroke="black" points="267.14,-551.62 263.64,-541.62 260.14,-551.62 267.14,-551.62"/>
</g>
<!-- 29 -->
<g id="node38" class="node">
<title>29</title>
<ellipse fill="none" stroke="black" cx="372.64" cy="-522" rx="45.64" ry="18"/>
<text text-anchor="middle" x="372.64" y="-517.8" font-family="Times,serif" font-size="14.00">[B,0,3,3]</text>
</g>
<!-- 22&#45;&gt;29 -->
<g id="edge36" class="edge">
<title>22-&gt;29</title>
<path fill="none" stroke="black" d="M285.7,-578.83C301.34,-568.79 322.58,-555.15 340.16,-543.86"/>
<polygon fill="black" stroke="black" points="341.69,-547.04 348.21,-538.69 337.9,-541.15 341.69,-547.04"/>
</g>
<!-- 31 -->
<g id="node39" class="node">
<title>31</title>
<ellipse fill="none" stroke="black" cx="154.64" cy="-522" rx="45.64" ry="18"/>
<text text-anchor="middle" x="154.64" y="-517.8" font-family="Times,serif" font-size="14.00">[B,0,4,3]</text>
</g>
<!-- 22&#45;&gt;31 -->
<g id="edge37" class="edge">
<title>22-&gt;31</title>
<path fill="none" stroke="black" d="M241.58,-578.83C225.94,-568.79 204.69,-555.15 187.12,-543.86"/>
<polygon fill="black" stroke="black" points="189.37,-541.15 179.06,-538.69 185.59,-547.04 189.37,-541.15"/>
</g>
<!-- 24 -->
<g id="node40" class="node">
<title>24</title>
<ellipse fill="none" stroke="black" cx="45.64" cy="-450" rx="45.64" ry="18"/>
<text text-anchor="middle" x="45.64" y="-445.8" font-family="Times,serif" font-size="14.00">[C,0,0,3]</text>
</g>
<!-- 23&#45;&gt;24 -->
<g id="edge38" class="edge">
<title>23-&gt;24</title>
<path fill="none" stroke="black" d="M45.64,-503.7C45.64,-496.41 45.64,-487.73 45.64,-479.54"/>
<polygon fill="black" stroke="black" points="49.14,-479.62 45.64,-469.62 42.14,-479.62 49.14,-479.62"/>
</g>
<!-- 26 -->
<g id="node41" class="node">
<title>26</title>
<ellipse fill="none" stroke="black" cx="478.64" cy="-450" rx="45.64" ry="18"/>
<text text-anchor="middle" x="478.64" y="-445.8" font-family="Times,serif" font-size="14.00">[C,0,1,3]</text>
</g>
<!-- 25&#45;&gt;26 -->
<g id="edge39" class="edge">
<title>25-&gt;26</title>
<path fill="none" stroke="black" d="M480.9,-503.7C480.58,-496.41 480.21,-487.73 479.86,-479.54"/>
<polygon fill="black" stroke="black" points="483.36,-479.46 479.44,-469.62 476.37,-479.76 483.36,-479.46"/>
</g>
<!-- 28 -->
<g id="node42" class="node">
<title>28</title>
<ellipse fill="none" stroke="black" cx="263.64" cy="-378" rx="45.64" ry="18"/>
<text text-anchor="middle" x="263.64" y="-373.8" font-family="Times,serif" font-size="14.00">[C,0,2,3]</text>
</g>
<!-- 27&#45;&gt;28 -->
<g id="edge41" class="edge">
<title>27-&gt;28</title>
<path fill="none" stroke="black" d="M263.64,-503.59C263.64,-479.61 263.64,-436.14 263.64,-407.42"/>
<polygon fill="black" stroke="black" points="267.14,-407.62 263.64,-397.62 260.14,-407.62 267.14,-407.62"/>
</g>
<!-- 30 -->
<g id="node44" class="node">
<title>30</title>
<ellipse fill="none" stroke="black" cx="372.64" cy="-378" rx="45.64" ry="18"/>
<text text-anchor="middle" x="372.64" y="-373.8" font-family="Times,serif" font-size="14.00">[C,0,3,3]</text>
</g>
<!-- 29&#45;&gt;30 -->
<g id="edge43" class="edge">
<title>29-&gt;30</title>
<path fill="none" stroke="black" d="M372.64,-503.59C372.64,-479.61 372.64,-436.14 372.64,-407.42"/>
<polygon fill="black" stroke="black" points="376.14,-407.62 372.64,-397.62 369.14,-407.62 376.14,-407.62"/>
</g>
<!-- 32 -->
<g id="node46" class="node">
<title>32</title>
<ellipse fill="none" stroke="black" cx="160.64" cy="-450" rx="45.64" ry="18"/>
<text text-anchor="middle" x="160.64" y="-445.8" font-family="Times,serif" font-size="14.00">[C,0,4,3]</text>
</g>
<!-- 31&#45;&gt;32 -->
<g id="edge45" class="edge">
<title>31-&gt;32</title>
<path fill="none" stroke="black" d="M156.12,-503.7C156.75,-496.41 157.49,-487.73 158.19,-479.54"/>
<polygon fill="black" stroke="black" points="161.68,-479.87 159.04,-469.61 154.7,-479.28 161.68,-479.87"/>
</g>
<!-- 26&#45;&gt;42 -->
<g id="edge40" class="edge">
<title>26-&gt;42</title>
<path fill="none" stroke="black" d="M479.38,-431.7C479.69,-424.41 480.06,-415.73 480.41,-407.54"/>
<polygon fill="black" stroke="black" points="483.91,-407.76 480.84,-397.62 476.91,-407.46 483.91,-407.76"/>
</g>
<!-- 28&#45;&gt;46 -->
<g id="edge42" class="edge">
<title>28-&gt;46</title>
<path fill="none" stroke="black" d="M278.55,-360.73C299.82,-337.86 338.24,-297.87 355.64,-288 400.13,-262.77 457.12,-249.14 498.35,-242.05"/>
<polygon fill="black" stroke="black" points="498.74,-245.53 508.04,-240.46 497.61,-238.62 498.74,-245.53"/>
</g>
<!-- 46&#45;&gt;51 -->
<g id="edge64" class="edge">
<title>46-&gt;51</title>
<path fill="none" stroke="black" d="M582.53,-220.16C609.18,-208.72 648.34,-191.9 677.29,-179.47"/>
<polygon fill="black" stroke="black" points="678.64,-182.7 686.44,-175.54 675.87,-176.27 678.64,-182.7"/>
</g>
<!-- 30&#45;&gt;48 -->
<g id="edge44" class="edge">
<title>30-&gt;48</title>
<path fill="none" stroke="black" d="M370.38,-359.6C368.82,-339.44 369.74,-306.62 388.64,-288 423.77,-253.39 559.66,-263.43 607.64,-252 610.73,-251.26 613.9,-250.44 617.09,-249.57"/>
<polygon fill="black" stroke="black" points="617.77,-253.01 626.4,-246.87 615.82,-246.29 617.77,-253.01"/>
</g>
<!-- 55 -->
<g id="node55" class="node">
<title>55</title>
<ellipse fill="none" stroke="black" cx="861.64" cy="-18" rx="45.64" ry="18"/>
<text text-anchor="middle" x="861.64" y="-13.8" font-family="Times,serif" font-size="14.00">[C,2,3,3]</text>
</g>
<!-- 48&#45;&gt;55 -->
<g id="edge66" class="edge">
<title>48-&gt;55</title>
<path fill="none" stroke="black" d="M691.88,-220.33C746.83,-196.61 859.28,-144.6 879.64,-108 890.22,-88.97 884.15,-64.57 876.31,-46.13"/>
<polygon fill="black" stroke="black" points="879.51,-44.73 872.11,-37.16 873.17,-47.7 879.51,-44.73"/>
</g>
<!-- 32&#45;&gt;50 -->
<g id="edge46" class="edge">
<title>32-&gt;50</title>
<path fill="none" stroke="black" d="M162.27,-431.99C165.79,-401.44 176.05,-336.01 202.64,-288 208.61,-277.21 217.29,-266.95 225.74,-258.38"/>
<polygon fill="black" stroke="black" points="228.14,-260.93 232.92,-251.47 223.29,-255.89 228.14,-260.93"/>
</g>
<!-- 57 -->
<g id="node56" class="node">
<title>57</title>
<ellipse fill="none" stroke="black" cx="561.64" cy="-18" rx="45.64" ry="18"/>
<text text-anchor="middle" x="561.64" y="-13.8" font-family="Times,serif" font-size="14.00">[C,2,4,3]</text>
</g>
<!-- 50&#45;&gt;57 -->
<g id="edge68" class="edge">
<title>50-&gt;57</title>
<path fill="none" stroke="black" d="M274.37,-217.95C328.22,-180.66 468.02,-83.83 530.58,-40.51"/>
<polygon fill="black" stroke="black" points="532.46,-43.46 538.69,-34.89 528.48,-37.71 532.46,-43.46"/>
</g>
<!-- 35 -->
<g id="node49" class="node">
<title>35</title>
<ellipse fill="none" stroke="black" cx="1042.64" cy="-234" rx="45.64" ry="18"/>
<text text-anchor="middle" x="1042.64" y="-229.8" font-family="Times,serif" font-size="14.00">[C,1,1,2]</text>
</g>
<!-- 34&#45;&gt;35 -->
<g id="edge51" class="edge">
<title>34-&gt;35</title>
<path fill="none" stroke="black" d="M1084.6,-288.41C1078.03,-280.04 1069.91,-269.71 1062.57,-260.37"/>
<polygon fill="black" stroke="black" points="1065.44,-258.36 1056.51,-252.66 1059.94,-262.69 1065.44,-258.36"/>
</g>
<!-- 51&#45;&gt;54 -->
<g id="edge70" class="edge">
<title>51-&gt;54</title>
<path fill="none" stroke="black" d="M737.7,-146.83C753.34,-136.79 774.58,-123.15 792.16,-111.86"/>
<polygon fill="black" stroke="black" points="793.69,-115.04 800.21,-106.69 789.9,-109.15 793.69,-115.04"/>
</g>
<!-- 51&#45;&gt;56 -->
<g id="edge71" class="edge">
<title>51-&gt;56</title>
<path fill="none" stroke="black" d="M693.58,-146.83C677.94,-136.79 656.69,-123.15 639.12,-111.86"/>
<polygon fill="black" stroke="black" points="641.37,-109.15 631.06,-106.69 637.59,-115.04 641.37,-109.15"/>
</g>
<!-- 52 -->
<g id="node57" class="node">
<title>52</title>
<ellipse fill="none" stroke="black" cx="715.64" cy="-90" rx="45.64" ry="18"/>
<text text-anchor="middle" x="715.64" y="-85.8" font-family="Times,serif" font-size="14.00">[B,2,2,3]</text>
</g>
<!-- 51&#45;&gt;52 -->
<g id="edge69" class="edge">
<title>51-&gt;52</title>
<path fill="none" stroke="black" d="M715.64,-143.7C715.64,-136.41 715.64,-127.73 715.64,-119.54"/>
<polygon fill="black" stroke="black" points="719.14,-119.62 715.64,-109.62 712.14,-119.62 719.14,-119.62"/>
</g>
<!-- 54&#45;&gt;55 -->
<g id="edge73" class="edge">
<title>54-&gt;55</title>
<path fill="none" stroke="black" d="M833.59,-72.05C837.78,-64.14 842.85,-54.54 847.53,-45.69"/>
<polygon fill="black" stroke="black" points="850.48,-47.6 852.06,-37.13 844.29,-44.33 850.48,-47.6"/>
</g>
<!-- 56&#45;&gt;57 -->
<g id="edge74" class="edge">
<title>56-&gt;57</title>
<path fill="none" stroke="black" d="M595.74,-72.05C590.6,-64.06 584.35,-54.33 578.61,-45.4"/>
<polygon fill="black" stroke="black" points="581.6,-43.58 573.25,-37.06 575.71,-47.37 581.6,-43.58"/>
</g>
<!-- 44 -->
<g id="node54" class="node">
<title>44</title>
<ellipse fill="none" stroke="black" cx="361.64" cy="-234" rx="45.64" ry="18"/>
<text text-anchor="middle" x="361.64" y="-229.8" font-family="Times,serif" font-size="14.00">[C,1,1,3]</text>
</g>
<!-- 43&#45;&gt;44 -->
<g id="edge62" class="edge">
<title>43-&gt;44</title>
<path fill="none" stroke="black" d="M279.95,-289.98C294.62,-280.11 314.03,-267.05 330.24,-256.13"/>
<polygon fill="black" stroke="black" points="331.77,-259.32 338.11,-250.84 327.86,-253.52 331.77,-259.32"/>
</g>
<!-- 53 -->
<g id="node58" class="node">
<title>53</title>
<ellipse fill="none" stroke="black" cx="715.64" cy="-18" rx="45.64" ry="18"/>
<text text-anchor="middle" x="715.64" y="-13.8" font-family="Times,serif" font-size="14.00">[C,2,2,3]</text>
</g>
<!-- 52&#45;&gt;53 -->
<g id="edge72" class="edge">
<title>52-&gt;53</title>
<path fill="none" stroke="black" d="M715.64,-71.7C715.64,-64.41 715.64,-55.73 715.64,-47.54"/>
<polygon fill="black" stroke="black" points="719.14,-47.62 715.64,-37.62 712.14,-47.62 719.14,-47.62"/>
</g>
</g>
</svg>